<svg width="38" height="31" viewBox="0 0 38 31" fill="none" xmlns="http://www.w3.org/2000/svg">
<path opacity="0.5" d="M3.39714 4.49965C6.02776 1.64777 10.0084 0.202148 15.2265 0.202148H17.1015V5.48777L15.594 5.78965C13.0253 6.3034 11.2384 7.31402 10.2821 8.79715C9.78319 9.59614 9.50021 10.511 9.46089 11.4521H15.2265C15.7238 11.4521 16.2007 11.6497 16.5523 12.0013C16.904 12.353 17.1015 12.8299 17.1015 13.3271V26.4521C17.1015 28.5203 15.4196 30.2021 13.3515 30.2021H2.10151C1.60423 30.2021 1.12732 30.0046 0.775686 29.653C0.424055 29.3013 0.226511 28.8244 0.226511 28.3271V18.9521L0.232136 13.479C0.215261 13.2709 -0.140989 8.33965 3.39714 4.49965ZM33.9765 30.2021H22.7265C22.2292 30.2021 21.7523 30.0046 21.4007 29.653C21.0491 29.3013 20.8515 28.8244 20.8515 28.3271V18.9521L20.8571 13.479C20.8403 13.2709 20.484 8.33965 24.0221 4.49965C26.6528 1.64777 30.6334 0.202148 35.8515 0.202148H37.7265V5.48777L36.219 5.78965C33.6503 6.3034 31.8634 7.31402 30.9071 8.79715C30.4082 9.59614 30.1252 10.511 30.0859 11.4521H35.8515C36.3488 11.4521 36.8257 11.6497 37.1774 12.0013C37.529 12.353 37.7265 12.8299 37.7265 13.3271V26.4521C37.7265 28.5203 36.0447 30.2021 33.9765 30.2021Z" fill="#29DBCC"/>
</svg>
