<svg width="38" height="31" viewBox="0 0 38 31" fill="none" xmlns="http://www.w3.org/2000/svg">
<path opacity="0.5" d="M34.544 25.9046C31.9134 28.7565 27.9328 30.2021 22.7146 30.2021L20.8396 30.2021L20.8396 24.9165L22.3471 24.6146C24.9159 24.1009 26.7028 23.0903 27.659 21.6071C28.158 20.8082 28.441 19.8933 28.4803 18.9521L22.7146 18.9521C22.2174 18.9521 21.7405 18.7546 21.3888 18.403C21.0372 18.0513 20.8396 17.5744 20.8396 17.0771L20.8396 3.95215C20.8396 1.88402 22.5215 0.202147 24.5896 0.202147L35.8397 0.202148C36.3369 0.202148 36.8138 0.399691 37.1655 0.751322C37.5171 1.10295 37.7147 1.57987 37.7147 2.07715L37.7147 11.4521L37.709 16.9253C37.7259 17.1334 38.0822 22.0646 34.544 25.9046ZM3.96464 0.202145L15.2146 0.202146C15.7119 0.202147 16.1888 0.399689 16.5405 0.75132C16.8921 1.10295 17.0896 1.57987 17.0896 2.07715L17.0896 11.4521L17.084 16.9253C17.1009 17.1334 17.4571 22.0646 13.919 25.9046C11.2884 28.7565 7.30776 30.2021 2.08964 30.2021L0.214638 30.2021L0.214638 24.9165L1.72214 24.6146C4.29089 24.1009 6.07776 23.0903 7.03401 21.6071C7.53297 20.8082 7.81595 19.8933 7.85527 18.9521L2.08964 18.9521C1.59236 18.9521 1.11544 18.7546 0.76381 18.403C0.412183 18.0513 0.214639 17.5744 0.214639 17.0771L0.21464 3.95215C0.21464 1.88402 1.89651 0.202145 3.96464 0.202145Z" fill="#29DBCC"/>
</svg>
