<svg width="9" height="9" viewBox="0 0 9 9" fill="none" xmlns="http://www.w3.org/2000/svg">
<path d="M8.10664 3.01918L5.59526 2.65419L4.4726 0.378216C4.44194 0.315901 4.3915 0.265456 4.32918 0.234793C4.1729 0.157642 3.98299 0.221935 3.90485 0.378216L2.78219 2.65419L0.270807 3.01918C0.201568 3.02907 0.138264 3.06171 0.089797 3.11116C0.031203 3.17139 -0.00108498 3.25241 2.78398e-05 3.33643C0.00114066 3.42045 0.0355632 3.50059 0.0957317 3.55924L1.91275 5.33076L1.48347 7.83225C1.47341 7.89044 1.47984 7.95029 1.50206 8.00501C1.52427 8.05972 1.56138 8.10712 1.60916 8.14182C1.65694 8.17653 1.71349 8.19715 1.77239 8.20135C1.8313 8.20555 1.8902 8.19316 1.94243 8.16559L4.18872 6.98457L6.43502 8.16559C6.49635 8.19823 6.56757 8.20911 6.63582 8.19724C6.80792 8.16756 6.92365 8.00436 6.89398 7.83225L6.4647 5.33076L8.28172 3.55924C8.33117 3.51077 8.36382 3.44747 8.37371 3.37823C8.40041 3.20513 8.27974 3.04489 8.10664 3.01918Z" fill="#8C8C8C"/>
</svg>
